<svg version="1.2" xmlns="http://www.w3.org/2000/svg" viewBox="44 411.7999572753906 708.7999572753906 265.1000671386719" width="100" height="40">
  <defs>
    <linearGradient id="g1" x1="90.1" y1="515" x2="715" y2="509.6" gradientUnits="userSpaceOnUse">
      <stop offset="0" stop-color="#e6a478"/>
      <stop offset=".2" stop-color="#ffccab"/>
      <stop offset=".6" stop-color="#ffbc88"/>
      <stop offset=".8" stop-color="#ffdbc1"/>
      <stop offset="1" stop-color="#dda782"/>
    </linearGradient>
    <linearGradient id="g2" x1="48.6" y1="630.9" x2="499.7" y2="627.1" gradientUnits="userSpaceOnUse">
      <stop offset="0" stop-color="#e6a478"/>
      <stop offset=".2" stop-color="#ffccab"/>
      <stop offset=".6" stop-color="#ffbc88"/>
      <stop offset=".8" stop-color="#ffdbc1"/>
      <stop offset="1" stop-color="#dda782"/>
    </linearGradient>
    <linearGradient id="g3" x1="48.6" y1="630.9" x2="499.7" y2="627.1" gradientUnits="userSpaceOnUse">
      <stop offset="0" stop-color="#e6a478"/>
      <stop offset=".2" stop-color="#ffccab"/>
      <stop offset=".6" stop-color="#ffbc88"/>
      <stop offset=".8" stop-color="#ffdbc1"/>
      <stop offset="1" stop-color="#dda782"/>
    </linearGradient>
    <linearGradient id="g4" x1="48.6" y1="630.9" x2="499.7" y2="627.1" gradientUnits="userSpaceOnUse">
      <stop offset="0" stop-color="#e6a478"/>
      <stop offset=".2" stop-color="#ffccab"/>
      <stop offset=".6" stop-color="#ffbc88"/>
      <stop offset=".8" stop-color="#ffdbc1"/>
      <stop offset="1" stop-color="#dda782"/>
    </linearGradient>
    <linearGradient id="g5" x1="48.6" y1="630.9" x2="499.7" y2="627.1" gradientUnits="userSpaceOnUse">
      <stop offset="0" stop-color="#e6a478"/>
      <stop offset=".2" stop-color="#ffccab"/>
      <stop offset=".6" stop-color="#ffbc88"/>
      <stop offset=".8" stop-color="#ffdbc1"/>
      <stop offset="1" stop-color="#dda782"/>
    </linearGradient>
    <linearGradient id="g6" x1="48.6" y1="630.9" x2="499.7" y2="627.1" gradientUnits="userSpaceOnUse">
      <stop offset="0" stop-color="#e6a478"/>
      <stop offset=".2" stop-color="#ffccab"/>
      <stop offset=".6" stop-color="#ffbc88"/>
      <stop offset=".8" stop-color="#ffdbc1"/>
      <stop offset="1" stop-color="#dda782"/>
    </linearGradient>
    <linearGradient id="g7" x1="48.6" y1="630.9" x2="499.7" y2="627.1" gradientUnits="userSpaceOnUse">
      <stop offset="0" stop-color="#e6a478"/>
      <stop offset=".2" stop-color="#ffccab"/>
      <stop offset=".6" stop-color="#ffbc88"/>
      <stop offset=".8" stop-color="#ffdbc1"/>
      <stop offset="1" stop-color="#dda782"/>
    </linearGradient>
    <linearGradient id="g8" x1="48.6" y1="630.9" x2="499.7" y2="627.1" gradientUnits="userSpaceOnUse">
      <stop offset="0" stop-color="#e6a478"/>
      <stop offset=".2" stop-color="#ffccab"/>
      <stop offset=".6" stop-color="#ffbc88"/>
      <stop offset=".8" stop-color="#ffdbc1"/>
      <stop offset="1" stop-color="#dda782"/>
    </linearGradient>
    <linearGradient id="g9" x1="89.2" y1="516" x2="714.1" y2="510.5" gradientUnits="userSpaceOnUse">
      <stop offset="0" stop-color="#e6a478"/>
      <stop offset=".2" stop-color="#ffccab"/>
      <stop offset=".6" stop-color="#ffbc88"/>
      <stop offset=".8" stop-color="#ffdbc1"/>
      <stop offset="1" stop-color="#dda782"/>
    </linearGradient>
  </defs>
  <style>
    .s0 { fill: url(#g1) } 
		.s1 { fill: #ffffff;stroke: #ffffff;stroke-width: .7 } 
		.s2 { fill: url(#g2) } 
		.s3 { fill: url(#g3) } 
		.s4 { fill: url(#g4) } 
		.s5 { fill: url(#g5) } 
		.s6 { fill: url(#g6) } 
		.s7 { fill: url(#g7) } 
		.s8 { fill: url(#g8) } 
		.s9 { fill: url(#g9) }
  </style>
  <g id="g10">
    <path id="path274" class="s0" d="m44.8 440.6c0.4 0 0 0.1-0.6 0.1q-0.1-0.1-0.2-0.1 0.4 0 0.8 0zm447.8 34.7c11.6 1.6 20.1 3.4 36.1 7.6 12.6 3.4 19 5.3 29.5 9 29.9 12.1 32.7 13 52.6 21.9 9.8 4.7 22.7 10.4 35.1 15.5 1.6 0.8 7.2 2.8 14.3 5.2 8.3 2.7 18.2 4 30.3 4 8.3 0.1 11.3-0.1 17.3-1.1 10.2-2.7 10.4-1.8 1.9 3.3-15.1 7.5-40.6 7.7-58.9 1.6-12.8-4.7-26.4-10.3-40-17-17.6-8.3-38-17.6-57.2-25.8-9.1-3.3-19.9-7.2-30.4-9.6-14.3-3.7-30.6-6.8-43.5-8.4-3.6-0.4-7.9-0.9-9.6-1.1-9-1.1-32.2-2.7-39.9-2.5-13.6 0.5-32.4 1.6-48.7 5.6-24.1 6.4-50.2 16-76.7 27.3l-3.3 1.5 15.7 0.3c39.2 0.8 65.9 2.4 113.9 6.8 12.6 1.2 30.8 2.8 40.4 3.6 18.5 1.5 46.2 4.2 47.4 4.5 1.3 0.4-18.8-0.1-34.7-0.9-26.6-1.3-55.1-2.5-83-3.8-50.9-2.3-109-2.6-164.7 1.2-11.4 0.8-34 3.1-47.3 4.8-8.1 0.9-17.9 2.1-26.6 3.8-9.8 1.6-19.2 4.3-30.3 8.1-17.7 7.1-32.6 19.8-39.4 33.5l-1.4 2.6 0.3-1.9c0.3-2.4 4.3-10.5 7.5-15.4 11.5-16.2 30.9-23.5 49.6-28.5 20.5-5.4 66.3-12 115.4-16.6 10.1-1 11.1-1.2 15.5-2.9 2.7-1 7.4-3 10.4-4.5 4.9-2.3 10-4.4 19.3-7.9 18.7-7.1 41.9-14.7 63.7-20 21-4.5 28.3-5.9 52.7-7.1 14.1-0.9 44.7 0.4 66.7 3.3z"/>
    <g id="flowRoot4820">
      <path id="path1086" class="s1" d="m174.8 665q0.6 0.6 2.1 1.4 0.1 0.1 0.2 0.1 2.2 1.1 3 2 1.3 1.4 1.3 3.6 0 2.2-1.2 3.5-1.3 1.3-3.4 1.3-1.3 0-2.1-0.4v-1.3q0.7 0.5 2.1 0.5 1.7 0 2.6-1 1-1 1-2.6 0-1.7-1-2.7-0.7-0.7-2.8-1.8 0 0 0 0-1.7-0.9-2.5-1.7-1.3-1.2-1.3-2.9 0-1.8 0.9-2.9 1-1.4 3-1.4 1 0 1.7 0.2v1.3q-0.6-0.3-1.7-0.3-1.7 0-2.4 1.3-0.5 0.7-0.5 1.8 0 1.1 1 2z"/>
      <path id="path1088" class="s1" d="m203.9 659v0.1l-1 1.1h-3.8v16.3h-1v-16.3h-3.7l-1-1.2z"/>
      <path id="path1090" class="s1" d="m221.7 676.9q-2.7 0-4.3-2-1.5-2.1-1.5-5.6v-10.2h1v10.2q0 3 1.3 4.7 1.3 1.7 3.5 1.7 2.3 0 3.6-1.7 1.3-1.7 1.3-4.7v-10.2h1v10.2q0 3.5-1.6 5.6-1.6 2-4.3 2z"/>
      <path id="path1092" fill-rule="evenodd" class="s1" d="m250 671.8q0 2.1-1.1 3.4-1.1 1.3-3 1.3h-6.2v-17.5h4.9q2.2 0.1 3.6 1.4 1.4 1.3 1.5 3.4 0 0.9 0.1 2.8 0.2 3.8 0.2 5.2zm-1.1 0q0-1.3-0.1-5.1-0.1-2-0.1-2.9-0.1-1.8-1.5-2.8-1.1-0.8-2.7-0.8h-3.8v15.1h5.2q1.5 0 2.3-1 0.8-0.9 0.7-2.5z"/>
      <path id="path1094" class="s1" d="m262.6 659.1h1v17.4h-1z"/>
      <path id="path1096" fill-rule="evenodd" class="s1" d="m283.3 676.9q-3.2 0-5.1-2.5-1.9-2.4-1.9-6.6 0-4 2-6.5 1.9-2.6 5-2.6 3.1 0 5.1 2.6 2 2.5 2 6.5 0 4.2-1.9 6.6-1.9 2.5-5.2 2.5zm0-17q-2.6 0-4.3 2.2-1.7 2.2-1.7 5.7 0 3.7 1.6 5.8 1.6 2.1 4.4 2.1 2.8 0 4.4-2.1 1.6-2.1 1.6-5.8 0-3.5-1.7-5.7-1.6-2.2-4.3-2.2z"/>
      <path id="path1098" fill-rule="evenodd" class="s1" d="m324.7 659q1.8 0 2.9 1.3 1.1 1.3 1.1 3.4 0 2.3-1.6 3.7-1 0.9-2.5 0.9h-5.2v8.2h-1v-17.5zm3 4.7q0-1.3-0.5-2.1-0.7-1.4-2.5-1.4h-5.2v6.9h5.1q1.2 0 1.9-0.6 1.2-1.1 1.2-2.8z"/>
      <path id="path1100" class="s1" d="m341.3 659.1h1.1v17.4h-1.1z"/>
      <path id="path1102" class="s1" d="m364.3 659l-0.9 1.2h-7.3v7.1h7.2l-1 1.2h-6.2v6.8h8.2l-0.9 1.2h-8.3v-17.5h9.2z"/>
      <path id="path1104" class="s1" d="m377.4 659v16.3h8.2l-0.9 1.2h-8.3v-17.5z"/>
      <path id="path1106" class="s1" d="m407 659l-0.9 1.2h-7.3v7.1h7.2l-1 1.2h-6.2v6.8h8.2l-0.9 1.2h-8.3v-17.5h9.2z"/>
      <path id="path1108" fill-rule="evenodd" class="s1" d="m431.1 667.7v5.4l-1-1.3v-2.9h-3l-0.1-0.1-0.9-1.1zm-1.1 6.5q-1.5 1.5-3.8 1.5-2.9 0-4.5-2.1-1.5-2.1-1.5-5.8 0-3.5 1.6-5.7 1.7-2.2 4.4-2.2 2 0 3.4 1.1l1-0.6q-1.8-1.7-4.4-1.7-3.1 0-5.1 2.6-2 2.5-2 6.5 0 4.2 1.9 6.6 1.9 2.5 5.2 2.5 2.9 0 4.8-2.1z"/>
      <path id="path1110" class="s1" d="m454.6 659.1v17.4h-2.1l-8.3-17.1v17.1h-1v-17.4h2.1l8.2 17v-17z"/>
      <path id="path1112" fill-rule="evenodd" class="s1" d="m474.5 659.1l6 17.4h-1.1l-1.2-3.4h-9.3l-1.1 3.4h-1.2l6-17.4zm-5.2 12.8h8.4l-4.2-12.4z"/>
      <path id="path1114" class="s1" d="m503.4 674.2l1.1 0.6q-1.9 2.1-4.9 2.1-3.3 0-5.2-2.5-1.9-2.4-1.9-6.6 0-4 2-6.5 2-2.6 5.1-2.6 2.7 0 4.5 1.7l-1 0.6q-1.5-1.1-3.5-1.1-2.7 0-4.3 2.2-1.7 2.2-1.7 5.7 0 3.7 1.6 5.8 1.6 2.1 4.4 2.1 2.3 0 3.8-1.5z"/>
      <path id="path1116" class="s1" d="m525.6 659.1v11.1q0 3.1-1.4 4.9-1.4 1.8-3.8 1.8-2.3 0-3.8-1.8l1.1-0.5q1 1.1 2.7 1.1 1.9 0 3-1.5 1.1-1.4 1.1-4v-11.1z"/>
      <path id="path1118" class="s1" d="m538 659.1h1.1v17.4h-1.1z"/>
      <path id="path1120" fill-rule="evenodd" class="s1" d="m575.5 659.1l5.9 17.4h-1.1l-1.1-3.4h-9.3l-1.2 3.4h-1.1l6-17.4zm-5.3 12.8h8.5l-4.2-12.4z"/>
      <path id="path1122" class="s1" d="m599.4 676.9q-2.7 0-4.3-2-1.6-2.1-1.6-5.6v-10.2h1.1v10.2q0 3 1.2 4.7 1.3 1.7 3.6 1.7 2.2 0 3.5-1.7 1.3-1.7 1.3-4.7v-10.2h1v10.2q0 3.5-1.5 5.6-1.6 2-4.3 2z"/>
      <path id="path1124" class="s1" d="m627.7 659v0.1l-1 1.1h-3.7v16.3h-1.1v-16.3h-3.7l-1-1.2z"/>
    </g>
    <g id="flowRoot4838">
      <path id="path1127" class="s2" d="m151.3 614.2h-2.8v-36.1h13.7q4.9 0 8 2.7 3.3 2.8 3.3 7.7 0 4.9-3.3 7.7-3.1 2.7-8 2.7h-4.3v-2.5h3.9q4.1 0 6.4-1.9 2.4-2.1 2.4-6 0-4-2.4-6-2.3-2-6.4-2h-10.5v15.9h0.1v2.5h-0.1z"/>
      <path id="path1129" class="s3" d="m244.8 602.5q0 5.3-3.6 8.7-3.6 3.3-9.2 3.3-5.6 0-9.2-3.3-3.6-3.4-3.6-8.7v-24.3h2.9v24q0 4.5 2.7 7.1 2.7 2.8 7.2 2.8 4.5 0 7.2-2.8 2.8-2.6 2.8-7.1v-24h2.8z"/>
      <path id="path1131" class="s4" d="m296.6 614.2h-2.9v-36.1h14.2q4.7 0 7.7 2.5 3.1 2.6 3.1 7.2 0 4-2.4 6.6-2.2 2.5-6.3 3.2l9.1 16.6h-3.4l-8.9-16.6h-3.7v-2.4h4.5q3.7 0 5.9-1.8 2.3-1.9 2.3-5.6 0-3.6-2.3-5.5-2.2-1.8-5.9-1.8h-11z"/>
      <path id="path1133" class="s5" d="m366.2 578.2h22.6v2.4h-19.8v14.2h16.9v2.5h-16.9v14.5h19.8v2.4h-22.6z"/>
      <path id="path1135" class="s6" d="m511.5 604q-0.9 4.8-4.3 7.7-3.4 2.8-8.4 2.8-5.5 0-9.3-3.7-2.3-2.3-3-5.5-0.4-2.3-0.4-9.1 0-6.8 0.4-9.2 0.7-3.2 3-5.4 3.8-3.7 9.3-3.7 5 0 8.4 2.8 3.4 2.8 4.3 7.7h-2.9q-0.8-3.8-3.4-5.9-2.6-2.2-6.4-2.2-4.1 0-7 2.8-1.9 1.8-2.5 4.6-0.4 2.3-0.4 8.5 0 6.2 0.4 8.4 0.6 2.9 2.5 4.7 2.9 2.8 7 2.8 3.8 0 6.5-2.2 2.6-2.2 3.4-5.9z"/>
      <path id="path1137" class="s7" d="m570 578.3l13.7 35.9h-3l-3.3-8.8-0.8-2.3-1.4-3.6-0.8-2.2-5.6-15.4-7.8 21.2h10.9l0.9 2.3h-12.7l-3.2 8.8h-3.1l13.7-35.9z"/>
      <path id="path1139" class="s8" d="m631.1 614.2h-2.8v-36.1h14.2q4.7 0 7.6 2.5 3.1 2.6 3.1 7.2 0 4-2.3 6.6-2.3 2.5-6.3 3.2l9 16.6h-3.3l-8.9-16.6h-3.7v-2.4h4.4q3.8 0 5.9-1.8 2.3-1.9 2.3-5.6 0-3.6-2.3-5.5-2.1-1.8-5.9-1.8h-11z"/>
    </g>
    <path id="rect1027" fill-rule="evenodd" class="s9" d="m752.8 411.8v258.9h-107v-3.9h103.3v-251.5h-696.7v251.5h101.2v3.9h-104.8v-258.9z"/>
  </g>
</svg>